<?xml version="1.0" standalone="no"?>
<!DOCTYPE svg PUBLIC "-//W3C//DTD SVG 20010904//EN"
 "http://www.w3.org/TR/2001/REC-SVG-20010904/DTD/svg10.dtd">
<svg version="1.0" xmlns="http://www.w3.org/2000/svg"
 width="250.000000pt" height="250.000000pt" viewBox="0 0 250.000000 250.000000"
 preserveAspectRatio="xMidYMid meet">
<metadata>
Created by potrace 1.11, written by Peter Selinger 2001-2013
</metadata>
<g transform="translate(0.000000,250.000000) scale(0.100000,-0.100000)"
fill="#000000" stroke="none">
<path d="M0 2159 l1 -342 49 -51 c43 -45 61 -56 132 -79 46 -15 101 -27 123
-27 45 0 127 -27 179 -59 19 -12 65 -54 102 -94 37 -40 62 -62 56 -50 -16 29
-15 33 4 33 10 0 14 -6 11 -14 -3 -8 2 -20 11 -28 13 -11 14 -11 7 2 -12 20
-13 45 -4 94 10 55 -9 86 -54 86 -32 0 -57 15 -57 33 0 5 7 1 16 -7 8 -9 22
-16 31 -16 11 0 9 6 -8 20 -31 26 -19 25 25 -1 45 -26 46 -17 1 32 -19 22 -35
47 -35 57 1 14 3 14 13 -4 16 -28 87 -110 87 -100 0 13 -52 111 -78 145 -25
33 -25 34 -4 29 12 -4 20 -2 16 3 -3 5 1 9 9 9 17 0 36 -22 70 -80 l26 -44 11
29 c20 53 45 71 89 67 29 -3 42 -10 46 -23 4 -10 11 -19 16 -19 13 0 11 18 -2
22 -7 2 -5 9 5 17 14 12 16 8 16 -43 0 -31 4 -56 10 -56 6 0 4 -15 -4 -35 -11
-26 -13 -43 -6 -61 6 -14 10 -42 10 -62 0 -20 4 -32 8 -27 4 6 16 11 27 12 17
1 17 -1 -5 -18 -15 -12 -18 -17 -7 -13 25 9 64 -3 87 -28 11 -12 20 -19 20
-15 0 3 12 0 27 -8 15 -8 30 -12 35 -9 4 3 8 1 8 -5 0 -6 6 -8 14 -5 7 3 16
-2 19 -10 8 -21 26 -20 34 2 4 9 14 27 24 40 17 22 17 25 -2 79 -10 31 -19 63
-19 72 1 9 31 61 68 116 l67 99 153 -3 153 -2 104 -76 c58 -42 102 -80 98 -86
-3 -5 -1 -7 5 -4 13 9 66 -21 81 -45 9 -14 8 -18 -4 -18 -8 0 -16 -9 -16 -20
-1 -11 -2 -26 -3 -32 -1 -7 4 -12 9 -11 6 1 9 -20 7 -52 -3 -47 -1 -55 20 -66
12 -7 25 -13 29 -12 3 1 10 -7 17 -18 10 -15 10 -19 -2 -19 -7 0 -19 -7 -26
-15 -15 -18 -30 -10 -30 16 0 11 -4 18 -9 14 -5 -3 -11 3 -13 12 -3 16 -4 16
-10 2 -4 -10 3 -27 18 -44 13 -15 21 -31 18 -36 -2 -5 3 -21 13 -36 16 -26 16
-27 0 -14 -15 12 -17 11 -17 -3 0 -9 -5 -16 -10 -16 -6 0 -8 -11 -4 -25 4 -14
1 -32 -6 -40 -10 -12 -9 -16 3 -21 8 -3 17 -14 20 -25 3 -10 1 -17 -4 -13 -5
3 -9 -11 -9 -30 0 -32 3 -36 25 -36 20 0 25 5 25 25 0 14 7 28 15 31 9 4 15
20 16 43 1 31 2 32 8 11 6 -22 9 -19 34 34 33 70 44 116 28 116 -6 0 -11 7
-11 16 0 9 -14 46 -31 82 -17 37 -37 84 -45 104 -12 35 -11 39 6 48 11 6 20 7
20 3 0 -4 5 -2 12 5 7 7 20 12 29 12 10 0 24 8 31 18 7 9 22 17 33 17 11 0 20
7 20 15 0 8 7 15 15 16 43 3 100 18 100 25 0 5 -5 9 -12 9 -6 0 -9 3 -6 6 3 3
15 0 27 -8 16 -10 23 -10 33 0 8 8 46 12 109 12 79 0 98 3 103 16 3 9 6 89 6
179 0 121 -3 165 -12 169 -10 5 -10 7 0 12 9 4 12 58 12 220 l0 214 -359 0
c-278 0 -360 -3 -364 -12 -4 -10 -6 -10 -6 -1 -1 18 -1417 18 -1425 0 -3 -9
-5 -9 -5 1 -1 9 -42 12 -171 12 l-170 0 0 -341z m1240 201 c0 -5 -2 -10 -4
-10 -3 0 -8 5 -11 10 -3 6 -1 10 4 10 6 0 11 -4 11 -10z m-524 -57 c19 -26 17
-35 -6 -23 -15 8 -18 8 -14 -3 3 -8 -2 -17 -11 -21 -9 -3 -13 -10 -10 -16 3
-6 -1 -7 -10 -4 -14 6 -14 8 2 19 10 8 19 18 19 24 1 6 2 18 3 26 1 20 11 19
27 -2z m44 7 c0 -5 -4 -10 -10 -10 -5 0 -10 5 -10 10 0 6 5 10 10 10 6 0 10
-4 10 -10z m-93 -6 c-3 -3 -12 -4 -19 -1 -8 3 -5 6 6 6 11 1 17 -2 13 -5z
m118 -44 c3 -5 1 -10 -4 -10 -6 0 -11 5 -11 10 0 6 2 10 4 10 3 0 8 -4 11 -10z
m-255 -130 c0 -5 -4 -10 -10 -10 -5 0 -10 5 -10 10 0 6 5 10 10 10 6 0 10 -4
10 -10z m-5 -80 c3 -5 1 -10 -4 -10 -6 0 -11 5 -11 10 0 6 2 10 4 10 3 0 8 -4
11 -10z m5 -60 c0 -5 -2 -10 -4 -10 -3 0 -8 5 -11 10 -3 6 -1 10 4 10 6 0 11
-4 11 -10z m-14 -58 c-4 -3 -11 0 -16 8 -15 24 -11 33 6 15 9 -9 13 -19 10
-23z m-356 -32 c0 -5 -2 -10 -4 -10 -3 0 -8 5 -11 10 -3 6 -1 10 4 10 6 0 11
-4 11 -10z m2270 -178 c0 -13 -12 -22 -22 -16 -10 6 -1 24 13 24 5 0 9 -4 9
-8z m-416 -389 c-2 -27 -3 -56 -4 -65 0 -10 -7 -18 -16 -18 -12 0 -14 3 -6 13
6 7 9 23 5 35 -4 18 13 82 22 82 2 0 1 -21 -1 -47z m41 -51 c-3 -3 -5 0 -5 7
0 7 -4 9 -10 6 -6 -4 -10 6 -10 22 l0 28 15 -29 c9 -16 13 -31 10 -34z"/>
<path d="M10 1658 c0 -14 5 -18 16 -14 9 3 12 2 9 -4 -11 -17 63 -41 139 -46
39 -2 64 -1 56 2 -8 4 -61 23 -117 44 -97 35 -103 36 -103 18z"/>
<path d="M1850 1629 c0 -5 4 -8 10 -4 5 3 14 -9 19 -27 5 -18 10 -25 10 -15 1
10 -4 27 -9 38 -11 20 -30 26 -30 8z"/>
<path d="M407 1606 c29 -14 70 -37 90 -53 33 -24 35 -24 18 -4 -26 30 -91 68
-130 76 -21 4 -14 -2 22 -19z"/>
<path d="M5 1590 c-9 -15 -1 -120 10 -120 5 0 4 -5 -2 -11 -12 -12 -6 -49 9
-49 6 0 3 -11 -6 -25 -20 -31 -21 -89 -1 -105 8 -7 15 -17 15 -22 0 -6 -7 -5
-15 2 -8 7 -15 9 -15 4 0 -9 68 -52 84 -52 5 0 13 -6 17 -14 6 -9 9 -7 9 10
l0 22 20 -20 c24 -24 28 -49 5 -30 -8 7 -15 8 -15 3 0 -9 31 -28 60 -36 8 -2
22 5 31 17 16 19 16 19 45 -7 33 -30 44 -34 44 -12 0 9 6 12 15 9 12 -5 13 -9
3 -21 -10 -12 -9 -14 3 -12 23 4 50 -12 42 -25 -15 -23 -13 -45 2 -40 8 4 15
10 15 16 0 5 4 6 10 3 18 -11 11 -35 -7 -28 -17 5 -17 5 0 -13 15 -16 19 -17
27 -4 5 8 10 23 10 33 0 19 15 23 25 7 10 -17 20 -11 50 29 16 21 34 38 40 36
5 -1 7 0 3 2 -11 6 -10 41 1 48 5 3 12 -3 14 -12 3 -10 5 -3 6 15 0 17 6 32
11 32 6 0 11 15 11 33 1 23 3 26 6 9 2 -12 9 -20 14 -17 5 4 9 1 9 -4 0 -6 -5
-11 -12 -11 -6 0 -8 -3 -5 -6 4 -4 13 -1 22 6 8 7 15 9 16 4 0 -5 4 0 9 11 7
17 9 17 9 3 1 -10 5 -18 10 -18 14 0 9 39 -6 44 -7 3 -13 10 -13 15 0 6 8 7
18 4 15 -6 16 -5 2 11 -8 11 -16 14 -18 7 -2 -6 -9 -8 -15 -4 -6 4 -8 0 -5 -9
5 -12 0 -14 -20 -9 -17 3 -21 6 -11 9 20 4 29 30 19 58 -12 32 -123 128 -197
170 l-68 39 -119 -2 c-95 -2 -128 2 -167 17 -27 10 -51 14 -54 10z m275 -90
c0 -5 -2 -10 -4 -10 -3 0 -8 5 -11 10 -3 6 -1 10 4 10 6 0 11 -4 11 -10z
m-203 -192 c34 -33 47 -64 15 -35 -10 10 -22 15 -25 12 -4 -3 -5 -2 -2 2 3 3
-5 17 -17 30 -33 35 -9 28 29 -9z m152 -68 c0 -9 -4 -8 -9 5 -5 11 -9 27 -9
35 0 9 4 8 9 -5 5 -11 9 -27 9 -35z m85 -1 c-3 -5 -10 -7 -15 -3 -5 3 -7 10
-3 15 3 5 10 7 15 3 5 -3 7 -10 3 -15z m-141 -3 c17 6 23 -6 11 -19 -9 -9 -44
11 -44 26 0 9 2 9 8 -1 5 -7 16 -10 25 -6z m107 -1 c0 -8 7 -15 16 -15 8 0 13
-4 10 -8 -3 -5 -20 -6 -38 -4 -18 3 -27 7 -20 9 6 3 12 11 12 19 0 8 5 14 10
14 6 0 10 -7 10 -15z m90 -9 c0 -8 -4 -17 -9 -21 -6 -3 -9 4 -8 15 1 23 17 28
17 6z m-30 -26 c0 -5 -4 -10 -10 -10 -5 0 -10 5 -10 10 0 6 5 10 10 10 6 0 10
-4 10 -10z m-140 -32 c0 -11 -12 -10 -30 2 -13 9 -13 11 0 19 14 9 29 -2 30
-21z m90 12 c0 -5 -2 -10 -4 -10 -3 0 -8 5 -11 10 -3 6 -1 10 4 10 6 0 11 -4
11 -10z m65 -10 c-3 -5 -12 -7 -20 -3 -21 7 -19 13 6 13 11 0 18 -4 14 -10z
m135 -50 c0 -5 -4 -10 -10 -10 -5 0 -10 5 -10 10 0 6 5 10 10 10 6 0 10 -4 10
-10z"/>
<path d="M886 1574 c-9 -24 -7 -54 4 -54 6 0 10 16 10 35 0 38 -4 44 -14 19z"/>
<path d="M687 1538 c-2 -18 -1 -37 3 -43 4 -5 10 -19 13 -30 3 -11 3 7 0 40
-7 72 -9 77 -16 33z"/>
<path d="M1845 1550 c-3 -5 -15 -10 -25 -10 -24 0 -36 -20 -19 -31 12 -7 12
-9 0 -9 -23 0 -5 -11 23 -14 20 -3 26 1 26 17 0 11 3 18 6 15 3 -4 6 -27 6
-52 0 -25 3 -46 8 -46 14 0 23 61 11 73 -6 6 -11 21 -11 33 0 25 -15 40 -25
24z"/>
<path d="M1790 1472 c0 -12 41 -54 47 -48 3 2 -3 16 -14 30 -18 25 -33 33 -33
18z"/>
<path d="M988 1463 c6 -2 18 -2 25 0 6 3 1 5 -13 5 -14 0 -19 -2 -12 -5z"/>
<path d="M1263 1348 c1 -39 -3 -50 -16 -40 -9 8 -13 -1 -15 -38 -2 -27 2 -51
8 -55 6 -4 10 -3 9 2 -5 28 3 53 17 53 13 0 15 -7 10 -37 -4 -21 -9 -46 -12
-56 -7 -22 21 -34 41 -17 13 11 15 7 15 -21 0 -19 -9 -54 -20 -78 -11 -23 -18
-46 -16 -50 3 -4 1 -33 -3 -64 -4 -31 -4 -57 0 -57 9 0 49 67 49 84 0 7 8 21
18 32 14 15 17 38 17 115 0 91 -2 98 -25 117 -22 18 -25 18 -37 3 -11 -14 -12
-11 -13 20 0 48 -11 99 -20 99 -4 0 -8 -6 -7 -12z m54 -140 c-3 -8 -6 -5 -6 6
-1 11 2 17 5 13 3 -3 4 -12 1 -19z m33 -88 c0 -16 -2 -30 -4 -30 -2 0 -6 14
-8 30 -3 17 -1 30 4 30 4 0 8 -13 8 -30z"/>
<path d="M1395 1226 c17 -14 35 -26 40 -25 6 0 4 3 -2 6 -7 2 -13 12 -13 21 0
8 -3 12 -6 9 -4 -3 -16 -2 -28 4 -14 6 -10 1 9 -15z"/>
<path d="M0 1193 c0 -19 14 -42 47 -75 26 -26 42 -48 37 -48 -6 0 -19 9 -28
19 -10 10 -25 21 -35 24 -15 4 -17 -1 -12 -32 4 -24 12 -37 25 -39 11 -2 16 0
12 6 -14 24 17 22 49 -2 24 -19 45 -26 77 -26 l43 1 -28 22 c-57 44 -132 116
-127 121 3 2 38 -22 78 -55 39 -33 72 -56 72 -52 -1 5 -24 26 -52 48 -28 22
-66 55 -84 73 -20 19 -39 30 -45 26 -8 -4 -9 -3 -5 4 4 7 1 12 -8 12 -11 0
-16 -9 -16 -27z m45 -113 c3 -5 -1 -10 -9 -10 -9 0 -16 5 -16 10 0 6 4 10 9
10 6 0 13 -4 16 -10z"/>
<path d="M1386 1188 c5 -7 7 -25 6 -40 -3 -33 11 -36 39 -9 l20 19 -22 21
c-25 23 -55 29 -43 9z"/>
<path d="M725 1170 c3 -5 8 -10 11 -10 2 0 4 5 4 10 0 6 -5 10 -11 10 -5 0 -7
-4 -4 -10z"/>
<path d="M1801 1082 c-6 -11 -8 -22 -5 -25 3 -3 -3 -4 -13 -3 -10 0 -21 5 -24
9 -3 5 -9 2 -12 -7 -5 -13 2 -16 43 -16 53 0 61 10 35 43 -13 18 -14 18 -24
-1z"/>
<path d="M1681 1081 c-8 -5 -9 -11 -3 -15 5 -3 15 1 22 9 14 16 3 20 -19 6z"/>
<path d="M1872 1065 c-11 -13 -10 -15 7 -15 14 0 19 5 15 15 -7 18 -6 18 -22
0z"/>
<path d="M1162 1045 c-10 -22 -9 -25 7 -25 14 0 17 6 13 25 -2 14 -5 25 -7 25
-1 0 -7 -11 -13 -25z"/>
<path d="M1130 1045 c-7 -8 -21 -15 -31 -15 -10 0 -21 -5 -25 -11 -3 -6 -17
-8 -29 -5 -19 5 -22 2 -18 -13 4 -17 -7 -18 -199 -23 -112 -3 -291 -2 -398 3
-107 4 -248 4 -313 1 l-118 -5 3 -63 c3 -65 12 -79 45 -68 13 4 14 3 5 -3 -15
-11 36 -35 113 -53 28 -6 58 -13 68 -16 11 -3 -14 26 -55 65 -56 54 -68 70
-53 71 12 0 39 -18 60 -40 22 -22 45 -38 52 -36 6 3 10 0 8 -7 -2 -7 10 -23
28 -37 23 -17 28 -19 17 -5 -14 17 -13 18 3 12 11 -4 16 -3 12 4 -4 6 -14 8
-22 5 -9 -4 -18 4 -24 23 -6 18 -16 28 -23 25 -14 -5 -29 33 -20 48 12 19 84
5 84 -17 0 -7 12 -18 28 -24 15 -6 38 -18 51 -28 24 -17 24 -17 12 5 -6 12 -9
22 -5 22 4 0 -1 10 -12 22 -19 21 -19 21 0 14 12 -4 22 -2 27 6 13 21 19 3 10
-29 -7 -25 -6 -35 9 -48 10 -9 24 -14 29 -10 16 9 13 25 -4 25 -8 0 -15 5 -15
10 0 6 0 13 0 18 0 4 11 10 24 13 40 11 116 -79 116 -135 0 -18 5 -26 18 -26
15 -1 15 -2 2 -10 -13 -7 -15 -21 -9 -82 4 -40 8 -103 8 -139 1 -63 0 -66 -21
-63 -13 2 -146 5 -295 8 l-273 5 0 -73 0 -73 61 -7 c98 -10 167 -7 171 6 5 14
76 12 93 -2 6 -5 67 -11 135 -14 l125 -4 3 -41 c2 -27 8 -41 17 -41 13 0 14
-10 6 -63 0 -5 -5 -6 -10 -2 -10 6 -9 -27 4 -87 6 -30 12 -38 29 -38 20 0 22
4 18 43 -3 23 -4 51 -4 62 1 21 8 118 10 148 2 15 13 17 80 16 45 0 69 -3 58
-8 -18 -7 -18 -8 -2 -14 10 -4 21 -5 26 -2 4 3 27 -2 51 -10 24 -9 56 -14 71
-11 17 3 28 0 29 -7 0 -7 2 -27 5 -45 3 -28 0 -34 -24 -44 l-27 -11 25 -7 c25
-7 25 -7 -5 -12 l-30 -5 28 -2 c22 -1 27 -6 27 -26 0 -16 -6 -25 -15 -25 -8 0
-15 -5 -15 -11 0 -5 -5 -7 -11 -4 -6 4 -8 13 -5 20 2 7 -3 23 -11 35 -13 19
-13 24 -2 31 11 7 10 9 -3 9 -10 0 -18 5 -18 11 0 5 -5 7 -10 4 -6 -3 -13 1
-16 10 -4 9 -10 13 -13 8 -3 -5 -22 -19 -41 -30 l-35 -22 -22 42 -22 42 -1
-43 c0 -25 -4 -41 -10 -37 -10 6 -19 -22 -23 -70 l-2 -30 120 -3 c104 -2 121
0 132 15 12 16 13 16 13 -1 0 -14 7 -17 36 -14 34 3 37 6 39 36 4 50 15 51 15
2 l0 -43 43 7 c64 11 167 12 167 2 0 -5 28 -5 63 -1 34 4 67 7 72 6 47 -7 284
-8 280 0 -4 5 1 6 9 3 9 -3 16 -1 16 5 0 6 4 11 10 11 5 0 7 -7 4 -15 -9 -23
42 -19 68 5 28 25 44 25 51 0 5 -19 14 -20 221 -20 147 1 216 4 216 11 0 6 -7
9 -15 6 -21 -9 -30 12 -12 30 20 20 77 9 77 -15 0 -13 -2 -14 -9 -4 -6 10 -10
9 -14 -7 -5 -20 -1 -21 65 -21 58 0 69 3 64 15 -7 20 11 19 31 0 24 -24 37
-13 40 34 2 38 1 42 -19 39 -29 -4 -33 15 -6 27 22 10 23 15 26 164 l3 154
-158 -6 c-87 -3 -241 -2 -343 1 l-185 7 -3 25 c-1 14 -3 84 -3 156 -1 112 2
138 19 178 13 29 28 46 39 47 24 2 25 2 43 -5 11 -5 19 4 29 26 7 18 15 28 18
21 2 -7 -1 -21 -7 -33 -10 -19 -10 -20 10 -8 11 7 23 23 27 36 3 13 17 28 30
33 13 5 128 9 254 9 l229 0 0 34 0 34 -419 1 c-393 1 -420 0 -424 -16 -4 -17
-5 -17 -6 0 -1 15 -13 17 -110 17 -117 0 -136 -7 -129 -52 3 -22 7 -23 86 -23
83 0 91 -2 71 -22 -26 -26 21 -82 52 -62 11 7 9 9 -9 9 -20 0 -23 5 -20 28 2
22 8 28 35 30 28 3 34 -1 51 -35 47 -91 60 -155 62 -304 3 -171 3 -167 -12
-146 -11 14 -37 17 -178 19 l-165 3 1 168 c1 150 0 167 -15 167 -10 0 -26 7
-37 15 -17 13 -17 14 -1 15 17 0 21 9 18 43 -1 9 4 17 13 17 20 0 23 66 4 73
-10 4 -10 6 0 6 7 1 12 14 12 34 -1 31 -1 31 -16 12 -8 -11 -33 -54 -56 -95
-22 -41 -45 -76 -49 -78 -21 -8 -6 -22 24 -23 18 -1 24 -3 14 -6 -14 -4 -17
-11 -12 -31 3 -15 7 -64 9 -109 2 -45 7 -87 11 -93 4 -7 3 -15 -3 -19 -6 -4
-7 -31 -2 -76 30 -266 30 -269 15 -284 -11 -11 -18 -12 -26 -4 -9 9 -8 16 5
28 20 20 21 49 3 67 -11 11 -11 16 -2 25 18 17 -5 138 -26 137 -16 -1 -17 43
-5 264 l5 92 -56 0 -55 0 5 -112 c4 -62 10 -128 16 -145 5 -18 6 -33 1 -33 -4
0 -7 -57 -5 -126 2 -74 0 -123 -5 -118 -5 5 -10 50 -12 99 l-3 90 -210 1
c-116 0 -226 1 -245 2 -65 4 -65 6 -62 158 4 131 5 139 35 197 22 42 41 64 62
73 43 18 58 -1 23 -30 -33 -26 -35 -36 -9 -36 14 0 24 13 36 44 10 25 14 49
10 55 -4 8 34 11 125 11 122 0 132 1 126 18 -6 16 -5 16 8 0 8 -12 27 -18 50
-18 27 0 35 -3 30 -12 -17 -30 14 10 35 45 l23 37 -35 0 c-50 0 -98 11 -91 21
3 5 13 9 23 9 19 0 67 37 59 45 -3 3 -11 -1 -18 -10z m-847 -90 c-3 -9 -8 -14
-10 -11 -3 3 -2 9 2 15 9 16 15 13 8 -4z m297 -70 c0 -7 -3 -21 -6 -29 -5 -14
-10 -12 -30 11 -17 20 -20 30 -13 40 13 15 49 0 49 -22z m107 -13 c-22 -22
-29 -24 -36 -13 -14 22 -2 39 27 43 38 5 39 1 9 -30z m1161 21 c-8 -10 -20
-27 -26 -38 -6 -11 -12 -15 -12 -9 0 12 38 64 47 64 3 0 -1 -8 -9 -17z m-108
-29 c0 -21 -4 -33 -10 -29 -17 10 -11 65 7 65 2 0 3 -16 3 -36z m-1530 5 c0
-6 -4 -7 -10 -4 -5 3 -10 11 -10 16 0 6 5 7 10 4 6 -3 10 -11 10 -16z m1787
-481 c-3 -7 -5 -2 -5 12 0 14 2 19 5 13 2 -7 2 -19 0 -25z m-746 -29 c-5 -26
-9 -34 -10 -19 -1 27 9 73 15 67 2 -2 0 -23 -5 -48z m396 -16 c-3 -10 -5 -4
-5 12 0 17 2 24 5 18 2 -7 2 -21 0 -30z m-400 -65 c-3 -8 -6 -5 -6 6 -1 11 2
17 5 13 3 -3 4 -12 1 -19z m161 -12 c3 -12 -1 -17 -10 -14 -7 3 -15 13 -16 22
-3 12 1 17 10 14 7 -3 15 -13 16 -22z m789 -2 c-7 -7 -37 7 -37 17 0 6 9 5 21
-1 11 -7 19 -14 16 -16z m-1264 -1 c-7 -2 -19 -2 -25 0 -7 3 -2 5 12 5 14 0
19 -2 13 -5z m624 -33 c3 -24 -8 -32 -27 -19 -12 8 -12 12 -2 16 6 2 12 12 12
21 0 20 13 7 17 -18z m473 13 c-8 -4 -20 -13 -27 -22 -6 -9 -15 -13 -19 -9
-11 12 17 38 40 37 15 0 17 -2 6 -6z m-60 -17 c0 -9 -8 -12 -25 -8 -28 5 -24
22 6 22 10 0 19 -6 19 -14z m380 10 c0 -3 -4 -8 -10 -11 -5 -3 -10 -1 -10 4 0
6 5 11 10 11 6 0 10 -2 10 -4z m-1325 -16 c3 -5 1 -10 -4 -10 -6 0 -11 5 -11
10 0 6 2 10 4 10 3 0 8 -4 11 -10z m141 -15 c-4 -15 -2 -25 4 -25 6 0 16 -13
21 -29 6 -16 17 -32 26 -35 12 -5 13 -9 3 -21 -11 -13 -10 -14 4 -9 18 7 46
-12 46 -32 0 -8 -20 -15 -57 -19 -32 -3 -73 -7 -91 -10 -36 -4 -55 16 -67 72
-5 25 -3 32 12 36 10 3 4 5 -14 6 -21 1 -33 6 -33 15 0 8 -3 21 -6 30 -5 12 1
14 33 9 21 -3 55 -14 77 -25 45 -22 56 -18 28 12 -22 24 -19 50 5 50 11 0 13
-7 9 -25z m492 18 c-10 -2 -26 -2 -35 0 -10 3 -2 5 17 5 19 0 27 -2 18 -5z
m-402 -41 c-4 -3 -11 0 -16 8 -15 24 -11 33 6 15 9 -9 13 -19 10 -23z m927 21
c-7 -2 -19 -2 -25 0 -7 3 -2 5 12 5 14 0 19 -2 13 -5z m-133 -7 c0 -9 -40 -13
-46 -5 -3 5 6 9 20 9 14 0 26 -2 26 -4z m-540 -26 c0 -5 -9 -10 -20 -10 -11 0
-20 -4 -20 -10 0 -5 5 -10 10 -10 6 0 10 -4 10 -10 0 -16 -28 0 -33 20 -3 12
1 21 12 23 29 8 41 7 41 -3z m590 -5 c0 -10 -33 -35 -46 -35 -19 0 -18 27 3
38 15 9 43 6 43 -3z m-522 -2 c-10 -2 -28 -2 -40 0 -13 2 -5 4 17 4 22 1 32
-1 23 -4z m341 3 c-2 -2 -21 -6 -42 -10 -27 -5 -37 -4 -32 3 3 6 22 11 42 11
20 0 34 -2 32 -4z m492 -12 c17 -21 -5 -36 -41 -27 -32 7 -44 18 -36 32 11 16
62 13 77 -5z m-1401 -4 c0 -5 -4 -10 -10 -10 -5 0 -10 5 -10 10 0 6 5 10 10
10 6 0 10 -4 10 -10z m920 -20 c0 -5 -2 -10 -4 -10 -3 0 -8 5 -11 10 -3 6 -1
10 4 10 6 0 11 -4 11 -10z m-1304 -36 c-4 -14 -9 -24 -12 -21 -3 2 -2 17 2 31
3 15 9 25 11 22 3 -3 2 -17 -1 -32z m1387 22 c4 -9 -2 -17 -14 -21 -25 -8 -31
-3 -23 19 8 20 30 21 37 2z m-1199 -21 c-7 -17 11 -21 21 -5 9 15 25 12 25 -5
0 -8 -7 -15 -15 -15 -8 0 -15 -4 -15 -10 0 -13 -27 -13 -35 0 -3 5 -1 19 5 30
12 23 22 27 14 5z m1378 -17 c33 -37 35 -48 8 -41 -13 3 -20 0 -21 -8 0 -8 -9
4 -18 26 -28 62 -14 73 31 23z m-761 -8 c5 0 9 -7 9 -15 0 -14 -3 -14 -30 0
-16 9 -30 19 -30 24 0 17 13 19 27 6 8 -8 19 -15 24 -15z m1004 6 c0 -11 -10
-23 -24 -27 -19 -8 -22 -6 -17 7 5 14 4 15 -8 5 -10 -9 -16 -9 -21 -1 -8 13
-8 13 20 28 28 16 50 10 50 -12z m-335 -13 c0 -17 -17 -17 -23 0 -3 7 -9 2
-15 -13 l-11 -25 0 27 c-1 24 3 27 24 26 14 -1 25 -8 25 -15z m-800 3 c0 -3
-4 -8 -10 -11 -5 -3 -10 -1 -10 4 0 6 5 11 10 11 6 0 10 -2 10 -4z m290 -16
c0 -5 -4 -10 -10 -10 -5 0 -10 5 -10 10 0 6 5 10 10 10 6 0 10 -4 10 -10z"/>
<path d="M1068 163 c6 -2 18 -2 25 0 6 3 1 5 -13 5 -14 0 -19 -2 -12 -5z"/>
<path d="M1090 129 c0 -5 5 -7 10 -4 6 3 10 8 10 11 0 2 -4 4 -10 4 -5 0 -10
-5 -10 -11z"/>
<path d="M1118 93 c7 -3 16 -2 19 1 4 3 -2 6 -13 5 -11 0 -14 -3 -6 -6z"/>
<path d="M1680 1050 c-11 -7 -6 -10 20 -10 26 0 31 3 20 10 -8 5 -17 10 -20
10 -3 0 -12 -5 -20 -10z"/>
<path d="M427 1028 c-7 -4 22 -7 63 -7 79 1 78 6 -3 11 -27 2 -54 0 -60 -4z"/>
<path d="M338 1023 c7 -3 16 -2 19 1 4 3 -2 6 -13 5 -11 0 -14 -3 -6 -6z"/>
<path d="M236 886 c21 -15 30 -14 19 3 -3 6 -14 11 -23 11 -13 0 -13 -2 4 -14z"/>
<path d="M270 885 c0 -18 19 -40 26 -32 4 4 0 15 -9 24 -9 10 -17 13 -17 8z"/>
<path d="M285 830 c3 -5 8 -10 11 -10 2 0 4 5 4 10 0 6 -5 10 -11 10 -5 0 -7
-4 -4 -10z"/>
<path d="M488 833 c7 -3 16 -2 19 1 4 3 -2 6 -13 5 -11 0 -14 -3 -6 -6z"/>
<path d="M436 788 c16 -12 41 -33 57 -47 15 -13 27 -20 27 -13 0 12 -87 82
-103 82 -5 0 3 -10 19 -22z"/>
<path d="M0 751 c0 -22 61 -80 78 -75 11 4 13 3 5 -3 -9 -6 4 -25 43 -66 31
-32 59 -56 62 -53 3 3 12 0 20 -7 11 -8 10 -3 -3 18 -30 48 -38 56 -44 47 -3
-5 -15 0 -26 11 -20 20 -20 20 3 8 35 -18 26 -1 -31 61 -48 53 -107 86 -107
59z m120 -92 c0 -5 -4 -9 -8 -9 -5 0 -9 7 -9 15 0 8 4 12 9 9 4 -3 8 -9 8 -15z
m55 -69 c-3 -5 -1 -10 6 -10 7 0 10 -2 7 -5 -3 -3 -13 -2 -22 1 -14 5 -15 9
-4 15 17 11 20 11 13 -1z"/>
<path d="M210 721 c49 -43 107 -81 96 -63 -5 8 -1 10 8 6 9 -3 16 -2 16 3 0
23 -31 46 -95 69 l-70 24 45 -39z"/>
<path d="M330 755 c0 -2 10 -10 23 -16 20 -11 21 -11 8 4 -13 16 -31 23 -31
12z"/>
<path d="M143 696 c15 -14 25 -26 22 -26 -3 0 8 -20 26 -45 34 -47 47 -59 30
-26 -10 18 -6 31 11 31 4 0 8 -6 8 -14 0 -8 4 -17 9 -20 17 -11 -1 32 -20 50
-10 9 -19 14 -19 11 0 -3 -12 5 -27 19 -16 14 -37 30 -48 36 -13 6 -11 1 8
-16z m51 -42 c3 -8 10 -12 16 -9 5 3 10 1 10 -4 0 -17 -15 -13 -35 9 -10 11
-13 20 -8 20 6 0 14 -7 17 -16z"/>
<path d="M7 616 c6 -10 8 -27 6 -37 -4 -13 2 -20 21 -25 46 -11 47 1 5 41 -23
22 -37 31 -32 21z"/>
<path d="M2218 603 c6 -2 12 -8 12 -12 0 -9 -52 -7 -68 3 -8 5 -10 2 -5 -10 5
-13 2 -15 -13 -11 -10 3 -35 -3 -54 -14 -19 -11 -26 -18 -15 -15 20 6 20 6 1
-9 -11 -8 -27 -15 -35 -15 -14 0 -14 1 -1 10 8 5 12 10 8 10 -13 0 -118 -41
-118 -46 0 -3 8 -13 17 -22 14 -15 45 -17 215 -20 l197 -3 -9 28 c-9 23 -16
28 -43 28 -22 0 -32 5 -32 15 0 9 7 14 18 12 11 -2 1 13 -26 37 -24 23 -48 41
-53 40 -5 0 -3 -3 4 -6z m-198 -87 c0 -2 -7 -7 -16 -10 -8 -3 -12 -2 -9 4 6
10 25 14 25 6z"/>
<path d="M293 585 c0 -8 4 -12 9 -9 5 3 6 10 3 15 -9 13 -12 11 -12 -6z"/>
<path d="M235 571 c-3 -5 0 -13 6 -17 8 -5 9 -3 4 6 -5 8 -3 11 6 8 8 -3 13
-14 11 -24 -2 -15 -1 -16 7 -4 7 9 6 19 -1 27 -12 15 -25 17 -33 4z"/>
<path d="M315 259 c-10 -15 3 -25 16 -12 7 7 7 13 1 17 -6 3 -14 1 -17 -5z"/>
<path d="M445 240 c-10 -11 -23 -20 -30 -20 -17 0 -60 -39 -52 -47 4 -3 17 2
28 13 16 14 21 15 17 4 -2 -8 -17 -21 -31 -28 -31 -15 -32 -21 -14 -46 12 -16
14 -16 27 8 17 34 45 34 48 1 1 -19 -3 -25 -18 -25 -23 0 -36 -22 -24 -41 5
-8 13 -4 25 12 l19 24 0 -46 0 -47 60 1 c33 0 60 1 60 2 0 1 -5 16 -11 32 -8
24 -15 30 -30 26 -16 -5 -19 0 -19 36 0 22 5 41 10 41 6 0 10 5 10 10 0 6 -7
10 -15 10 -8 0 -15 7 -15 16 0 11 -5 14 -16 10 -14 -6 -15 -4 -4 10 11 13 11
17 1 24 -9 5 -10 10 -2 14 13 8 15 26 3 26 -5 0 -17 -9 -27 -20z m38 -165 c4
-8 2 -17 -3 -20 -6 -4 -10 3 -10 14 0 25 6 27 13 6z m-26 -47 c-3 -8 -6 -5 -6
6 -1 11 2 17 5 13 3 -3 4 -12 1 -19z"/>
<path d="M230 240 c-13 -8 -12 -10 3 -10 9 0 17 5 17 10 0 12 -1 12 -20 0z"/>
<path d="M210 143 c0 -11 -7 -26 -15 -33 -8 -7 -15 -18 -15 -25 0 -13 -21 -25
-46 -25 -10 0 -14 14 -15 48 -1 47 -1 47 -11 15 -9 -26 -16 -32 -35 -31 -14 2
-29 10 -34 20 -10 18 -39 25 -39 9 0 -5 7 -14 15 -21 9 -7 14 -19 11 -27 -4
-9 4 -13 25 -13 16 0 32 -6 35 -13 3 -8 16 -12 33 -9 21 3 29 -1 33 -15 4 -16
15 -20 57 -21 50 -1 51 0 48 26 -3 20 -9 26 -24 24 -11 -1 -26 4 -33 13 -14
17 -7 19 20 5 26 -14 32 1 19 41 -15 44 -29 59 -29 32z"/>
<path d="M300 31 c0 -5 5 -13 10 -16 6 -3 10 -2 10 4 0 5 -4 13 -10 16 -5 3
-10 2 -10 -4z"/>
</g>
</svg>
